# Object Export From Tinkercad Server 2015

mtllib obj.mtl

o obj_0
v -11.595 		9.516 		0
v -11.114 		10.073 		0
v -10.607 		10.607 		0
v -10.073 		11.114 		0
v 0.736 		14.982 		0
v 8.032 		5.957 		4
v -7.071 		-7.071 		4
v 7.73 		6.344 		4
v -14.928 		1.47 		0
v -14.838 		2.201 		0
v 0 		15 		0
v -9.04 		4.276 		4
v -9.239 		3.827 		4
v -9.415 		3.369 		4
v 0 		15 		4
v -14.712 		2.926 		0
v -14.55 		3.645 		0
v -14.354 		4.354 		0
v -14.123 		5.053 		0
v -13.858 		5.74 		0
v -13.56 		6.413 		0
v -13.229 		7.071 		0
v -12.866 		7.712 		0
v 7.41 		6.716 		4
v -12.472 		8.334 		0
v -12.048 		8.935 		0
v 7.41 		-6.716 		4
v -9.569 		2.903 		4
v 0.736 		14.982 		4
v -0.736 		14.982 		0
v -0.736 		14.982 		4
v -1.47 		14.928 		0
v -1.47 		14.928 		4
v -13.229 		-7.071 		0
v -2.201 		14.838 		0
v -13.56 		-6.413 		0
v -2.201 		14.838 		4
v -13.858 		-5.74 		0
v -14.123 		-5.053 		0
v -14.354 		-4.354 		0
v -14.55 		-3.645 		0
v -14.712 		-2.926 		0
v -14.838 		-2.201 		0
v -14.928 		-1.47 		0
v -9.7 		2.43 		4
v -14.982 		-0.736 		0
v -15 		0 		0
v -14.982 		0.736 		0
v -9.808 		1.951 		4
v -10.073 		-11.114 		0
v -10.607 		-10.607 		0
v -11.114 		-10.073 		0
v -11.595 		-9.516 		0
v -12.048 		-8.935 		0
v -12.472 		-8.334 		0
v -12.866 		-7.712 		0
v -10.073 		11.114 		4
v -10.607 		10.607 		4
v -11.114 		10.073 		4
v -11.595 		9.516 		4
v -9.892 		1.467 		4
v 7.071 		-7.071 		4
v 7.73 		-6.344 		4
v -12.048 		8.935 		4
v -12.472 		8.334 		4
v -12.866 		7.712 		4
v -13.229 		7.071 		4
v -13.56 		6.413 		4
v -13.858 		5.74 		4
v 8.032 		-5.957 		4
v -14.123 		5.053 		4
v -14.354 		4.354 		4
v -14.55 		3.645 		4
v -14.712 		2.926 		4
v -14.838 		2.201 		4
v -14.928 		1.47 		4
v -9.952 		0.98 		4
v -14.982 		0.736 		4
v -15 		0 		4
v -14.982 		-0.736 		4
v -14.928 		-1.47 		4
v -14.838 		-2.201 		4
v -9.988 		0.491 		4
v -14.712 		-2.926 		4
v -10 		0 		4
v -14.55 		-3.645 		4
v -14.354 		-4.354 		4
v -14.123 		-5.053 		4
v -13.858 		-5.74 		4
v 7.071 		7.071 		4
v -13.56 		-6.413 		4
v -13.229 		-7.071 		4
v -9.988 		-0.491 		4
v 6.716 		7.41 		4
v -9.952 		-0.98 		4
v -12.866 		-7.712 		4
v -12.472 		-8.334 		4
v -12.048 		-8.935 		4
v -11.595 		-9.516 		4
v -11.114 		-10.073 		4
v -10.607 		-10.607 		4
v -10.073 		-11.114 		4
v 6.344 		7.73 		4
v -9.892 		-1.467 		4
v 5.957 		8.032 		4
v -9.808 		-1.951 		4
v 5.556 		8.315 		4
v -9.7 		-2.43 		4
v 5.141 		8.577 		4
v -9.569 		-2.903 		4
v 4.714 		8.819 		4
v 4.276 		9.04 		4
v -9.415 		-3.369 		4
v -9.239 		-3.827 		4
v -9.04 		-4.276 		4
v -0.491 		9.988 		14
v 0 		10 		14
v -0.98 		9.952 		14
v -8.819 		-4.714 		4
v -1.467 		9.892 		14
v -8.577 		-5.141 		4
v -1.951 		9.808 		14
v -2.43 		9.7 		14
v -8.315 		-5.556 		4
v -2.903 		9.569 		14
v -3.369 		9.415 		14
v -3.827 		9.239 		14
v -4.276 		9.04 		14
v -4.714 		8.819 		14
v -5.141 		8.577 		14
v -5.556 		8.315 		14
v -5.957 		8.032 		14
v -6.344 		7.73 		14
v 11.114 		-10.073 		0
v 10.607 		-10.607 		0
v 10.073 		-11.114 		0
v 9.516 		-11.595 		0
v 8.935 		-12.048 		0
v 8.334 		-12.472 		0
v -6.716 		7.41 		14
v 11.595 		9.516 		4
v 11.114 		10.073 		4
v 10.607 		10.607 		4
v 10.073 		11.114 		4
v -7.071 		7.071 		14
v -7.41 		6.716 		14
v 7.712 		-12.866 		0
v 7.071 		-13.229 		0
v 6.413 		-13.56 		0
v 5.74 		-13.858 		0
v -7.73 		6.344 		14
v 5.053 		-14.123 		0
v 4.354 		-14.354 		0
v 3.645 		-14.55 		0
v 2.926 		-14.712 		0
v 2.201 		-14.838 		0
v 1.47 		-14.928 		0
v 0.736 		-14.982 		0
v 14.928 		1.47 		4
v 0 		-15 		0
v 14.838 		2.201 		4
v 14.712 		2.926 		4
v 14.55 		3.645 		4
v -8.032 		5.957 		14
v 14.354 		4.354 		4
v 14.123 		5.053 		4
v -8.315 		5.556 		14
v -0.736 		-14.982 		0
v -1.47 		-14.928 		0
v -2.201 		-14.838 		0
v -8.577 		5.141 		14
v -2.926 		-14.712 		0
v -3.645 		-14.55 		0
v -4.354 		-14.354 		0
v -5.053 		-14.123 		0
v -5.74 		-13.858 		0
v -6.413 		-13.56 		0
v -7.071 		-13.229 		0
v -7.712 		-12.866 		0
v -8.819 		4.714 		14
v -3.827 		-9.239 		4
v -9.04 		4.276 		14
v -9.239 		3.827 		14
v -8.334 		-12.472 		0
v -8.935 		-12.048 		0
v -9.516 		-11.595 		0
v -3.369 		-9.415 		4
v -9.415 		3.369 		14
v -9.569 		2.903 		14
v 8.334 		-12.472 		4
v 8.935 		-12.048 		4
v 9.516 		-11.595 		4
v 10.073 		-11.114 		4
v 10.607 		-10.607 		4
v 11.114 		-10.073 		4
v -2.903 		-9.569 		4
v -9.7 		2.43 		14
v -9.808 		1.951 		14
v -2.43 		-9.7 		4
v -9.892 		1.467 		14
v 0 		-15 		4
v 0.736 		-14.982 		4
v 1.47 		-14.928 		4
v 2.201 		-14.838 		4
v 2.926 		-14.712 		4
v 3.645 		-14.55 		4
v 4.354 		-14.354 		4
v 5.053 		-14.123 		4
v 5.74 		-13.858 		4
v 6.413 		-13.56 		4
v 7.071 		-13.229 		4
v 7.712 		-12.866 		4
v -0.491 		9.988 		4
v -1.951 		-9.808 		4
v 0 		-10 		4
v 0 		10 		4
v -1.467 		-9.892 		4
v -0.98 		9.952 		4
v -0.736 		-14.982 		4
v -0.98 		-9.952 		4
v -1.467 		9.892 		4
v -7.712 		-12.866 		4
v -7.071 		-13.229 		4
v -6.413 		-13.56 		4
v -5.74 		-13.858 		4
v -5.053 		-14.123 		4
v -4.354 		-14.354 		4
v -3.645 		-14.55 		4
v -2.926 		-14.712 		4
v -2.201 		-14.838 		4
v -1.47 		-14.928 		4
v -1.951 		9.808 		4
v -0.491 		-9.988 		4
v -9.516 		-11.595 		4
v -8.935 		-12.048 		4
v -8.334 		-12.472 		4
v -2.43 		9.7 		4
v -2.903 		9.569 		4
v -3.369 		9.415 		4
v -6.716 		-7.41 		4
v -3.827 		9.239 		4
v -6.344 		-7.73 		4
v -5.957 		-8.032 		4
v -5.556 		-8.315 		4
v -4.276 		9.04 		4
v -5.141 		-8.577 		4
v -4.714 		8.819 		4
v -4.714 		-8.819 		4
v -5.141 		8.577 		4
v -4.276 		-9.04 		4
v -5.556 		8.315 		4
v -5.957 		8.032 		4
v -6.344 		7.73 		4
v -6.716 		7.41 		4
v -7.071 		7.071 		4
v -7.41 		6.716 		4
v -7.73 		6.344 		4
v 13.858 		5.74 		4
v 13.56 		6.413 		4
v 13.229 		7.071 		4
v 12.866 		7.712 		4
v 12.472 		8.334 		4
v 12.048 		8.935 		4
v -8.032 		5.957 		4
v 15 		0 		4
v 14.982 		0.736 		4
v 10.073 		11.114 		0
v 10.607 		10.607 		0
v 11.114 		10.073 		0
v 11.595 		9.516 		0
v 10 		0 		4
v 13.229 		-7.071 		4
v 13.56 		-6.413 		4
v 13.858 		-5.74 		4
v 14.123 		-5.053 		4
v 14.354 		-4.354 		4
v 14.55 		-3.645 		4
v 14.712 		-2.926 		4
v 14.838 		-2.201 		4
v 14.928 		-1.47 		4
v 14.982 		-0.736 		4
v -8.315 		5.556 		4
v 12.048 		8.935 		0
v 11.595 		-9.516 		4
v 12.048 		-8.935 		4
v 12.472 		8.334 		0
v 12.472 		-8.334 		4
v 12.866 		-7.712 		4
v 12.866 		7.712 		0
v 13.229 		7.071 		0
v 13.56 		6.413 		0
v 13.858 		5.74 		0
v 14.123 		5.053 		0
v 14.354 		4.354 		0
v 14.55 		3.645 		0
v 14.712 		2.926 		0
v 14.838 		2.201 		0
v 14.928 		1.47 		0
v -8.577 		5.141 		4
v 14.982 		0.736 		0
v 15 		0 		0
v 14.982 		-0.736 		0
v 14.928 		-1.47 		0
v 14.838 		-2.201 		0
v 14.712 		-2.926 		0
v -8.819 		4.714 		4
v 14.55 		-3.645 		0
v 14.354 		-4.354 		0
v 14.123 		-5.053 		0
v 13.858 		-5.74 		0
v 13.56 		-6.413 		0
v 13.229 		-7.071 		0
v 12.866 		-7.712 		0
v 12.472 		-8.334 		0
v 12.048 		-8.935 		0
v 11.595 		-9.516 		0
v 8.334 		12.472 		0
v 8.935 		12.048 		0
v 9.516 		11.595 		0
v 1.47 		14.928 		0
v 2.201 		14.838 		0
v 2.926 		14.712 		0
v 3.645 		14.55 		0
v 4.354 		14.354 		0
v 5.053 		14.123 		0
v 5.74 		13.858 		0
v 6.413 		13.56 		0
v 7.071 		13.229 		0
v 7.712 		12.866 		0
v -7.712 		12.866 		0
v -7.071 		13.229 		0
v -6.413 		13.56 		0
v -5.74 		13.858 		0
v -5.053 		14.123 		0
v -4.354 		14.354 		0
v -3.645 		14.55 		0
v -2.926 		14.712 		0
v -9.516 		11.595 		0
v -8.935 		12.048 		0
v -8.334 		12.472 		0
v 9.516 		11.595 		4
v 8.935 		12.048 		4
v 8.334 		12.472 		4
v 7.712 		12.866 		4
v 7.071 		13.229 		4
v 6.413 		13.56 		4
v 5.74 		13.858 		4
v 5.053 		14.123 		4
v 4.354 		14.354 		4
v 3.645 		14.55 		4
v 2.926 		14.712 		4
v 2.201 		14.838 		4
v 1.47 		14.928 		4
v -2.926 		14.712 		4
v -3.645 		14.55 		4
v -4.354 		14.354 		4
v -5.053 		14.123 		4
v -5.74 		13.858 		4
v -6.413 		13.56 		4
v -7.071 		13.229 		4
v -7.712 		12.866 		4
v -8.334 		12.472 		4
v -8.935 		12.048 		4
v -9.516 		11.595 		4
v 9.808 		1.951 		14
v 9.7 		2.43 		14
v 9.569 		2.903 		14
v 9.415 		3.369 		14
v 9.239 		3.827 		14
v 9.04 		4.276 		14
v 8.819 		4.714 		14
v 8.577 		5.141 		14
v 8.315 		5.556 		14
v 9.892 		1.467 		14
v 0.491 		9.988 		14
v 3.827 		9.239 		14
v 3.369 		9.415 		14
v 2.903 		9.569 		14
v 2.43 		9.7 		14
v 1.951 		9.808 		14
v 1.467 		9.892 		14
v 0.98 		9.952 		14
v 8.032 		5.957 		14
v 7.73 		6.344 		14
v 7.41 		6.716 		14
v 7.071 		7.071 		14
v 6.716 		7.41 		14
v 6.344 		7.73 		14
v 5.957 		8.032 		14
v 5.556 		8.315 		14
v 5.141 		8.577 		14
v 4.714 		8.819 		14
v 4.276 		9.04 		14
v 9.569 		-2.903 		14
v 9.7 		-2.43 		14
v 9.808 		-1.951 		14
v 9.892 		-1.467 		14
v 9.952 		-0.98 		14
v 9.988 		-0.491 		14
v 10 		0 		14
v 9.988 		0.491 		14
v 9.952 		0.98 		14
v 8.315 		-5.556 		14
v 8.577 		-5.141 		14
v 8.819 		-4.714 		14
v 9.04 		-4.276 		14
v 9.239 		-3.827 		14
v 9.415 		-3.369 		14
v 7.071 		-7.071 		14
v 7.41 		-6.716 		14
v 7.73 		-6.344 		14
v 8.032 		-5.957 		14
v 4.276 		-9.04 		14
v 4.714 		-8.819 		14
v 5.141 		-8.577 		14
v 5.556 		-8.315 		14
v 5.957 		-8.032 		14
v 6.344 		-7.73 		14
v 6.716 		-7.41 		14
v 0.491 		-9.988 		14
v 0 		-10 		14
v 0.98 		-9.952 		14
v 1.467 		-9.892 		14
v 1.951 		-9.808 		14
v 2.43 		-9.7 		14
v 2.903 		-9.569 		14
v 3.369 		-9.415 		14
v 3.827 		-9.239 		14
v 9.569 		-2.903 		4
v 9.7 		-2.43 		4
v 9.808 		-1.951 		4
v 9.892 		-1.467 		4
v 9.952 		-0.98 		4
v 9.988 		-0.491 		4
v 9.988 		0.491 		4
v 9.952 		0.98 		4
v 8.315 		-5.556 		4
v 8.577 		-5.141 		4
v 8.819 		-4.714 		4
v 9.04 		-4.276 		4
v 9.239 		-3.827 		4
v 9.415 		-3.369 		4
v 4.276 		-9.04 		4
v 4.714 		-8.819 		4
v 5.141 		-8.577 		4
v 5.556 		-8.315 		4
v 5.957 		-8.032 		4
v 6.344 		-7.73 		4
v 6.716 		-7.41 		4
v 0.491 		-9.988 		4
v 0.98 		-9.952 		4
v 1.467 		-9.892 		4
v 1.951 		-9.808 		4
v 2.43 		-9.7 		4
v 2.903 		-9.569 		4
v 3.369 		-9.415 		4
v 3.827 		-9.239 		4
v -8.032 		-5.957 		14
v -7.73 		-6.344 		14
v -7.41 		-6.716 		14
v -7.071 		-7.071 		14
v -9.952 		0.98 		14
v -9.988 		0.491 		14
v -10 		0 		14
v -9.988 		-0.491 		14
v -9.952 		-0.98 		14
v -9.892 		-1.467 		14
v -9.808 		-1.951 		14
v -9.7 		-2.43 		14
v -9.569 		-2.903 		14
v -9.415 		-3.369 		14
v -9.239 		-3.827 		14
v -9.04 		-4.276 		14
v -8.819 		-4.714 		14
v -8.577 		-5.141 		14
v -8.315 		-5.556 		14
v -3.827 		-9.239 		14
v -3.369 		-9.415 		14
v -2.903 		-9.569 		14
v -2.43 		-9.7 		14
v -1.951 		-9.808 		14
v -1.467 		-9.892 		14
v -0.98 		-9.952 		14
v -0.491 		-9.988 		14
v -6.716 		-7.41 		14
v -6.344 		-7.73 		14
v -5.957 		-8.032 		14
v -5.556 		-8.315 		14
v -5.141 		-8.577 		14
v -4.714 		-8.819 		14
v -4.276 		-9.04 		14
v -8.032 		-5.957 		4
v -7.73 		-6.344 		4
v -7.41 		-6.716 		4
v 9.892 		1.467 		4
v 9.808 		1.951 		4
v 9.7 		2.43 		4
v 9.569 		2.903 		4
v 9.415 		3.369 		4
v 9.239 		3.827 		4
v 9.04 		4.276 		4
v 8.819 		4.714 		4
v 8.577 		5.141 		4
v 8.315 		5.556 		4
v 3.827 		9.239 		4
v 3.369 		9.415 		4
v 2.903 		9.569 		4
v 2.43 		9.7 		4
v 1.951 		9.808 		4
v 1.467 		9.892 		4
v 0.98 		9.952 		4
v 0.491 		9.988 		4
# 512 vertices

g group_0_2829873

usemtl color_2829873
s 0

f 3 	4 	179
f 12 	13 	182
f 299 	282 	66
f 8 	141 	24
f 16 	179 	10
f 17 	179 	16
f 18 	179 	17
f 19 	179 	18
f 20 	179 	19
f 21 	179 	20
f 22 	179 	21
f 23 	179 	22
f 26 	1 	179
f 1 	2 	179
f 465 	93 	95
f 5 	11 	15
f 5 	15 	29
f 11 	30 	31
f 11 	31 	15
f 30 	32 	33
f 30 	33 	31
f 32 	35 	37
f 32 	37 	33
f 66 	67 	306
f 38 	179 	36
f 39 	179 	38
f 40 	179 	39
f 41 	179 	40
f 42 	179 	41
f 43 	179 	42
f 45 	49 	198
f 52 	179 	51
f 53 	179 	52
f 54 	179 	53
f 63 	411 	27
f 411 	63 	412
f 70 	412 	63
f 67 	68 	12
f 12 	306 	67
f 13 	12 	68
f 68 	69 	13
f 69 	71 	13
f 14 	13 	71
f 28 	14 	71
f 72 	28 	71
f 73 	45 	72
f 74 	49 	73
f 75 	61 	74
f 76 	61 	75
f 78 	77 	76
f 34 	36 	179
f 83 	77 	78
f 9 	179 	48
f 77 	83 	462
f 24 	385 	8
f 24 	143 	90
f 84 	86 	106
f 108 	106 	86
f 106 	104 	84
f 82 	84 	104
f 81 	82 	104
f 87 	108 	86
f 88 	110 	87
f 92 	96 	119
f 124 	121 	96
f 96 	97 	124
f 89 	114 	88
f 91 	114 	89
f 104 	95 	81
f 78 	79 	83
f 85 	83 	79
f 90 	385 	24
f 90 	143 	94
f 465 	85 	93
f 93 	85 	79
f 79 	80 	93
f 98 	124 	97
f 100 	494 	99
f 94 	341 	103
f 4 	3 	58
f 4 	58 	57
f 103 	341 	105
f 3 	2 	59
f 3 	59 	58
f 95 	93 	80
f 2 	1 	60
f 2 	60 	59
f 103 	105 	389
f 43 	44 	179
f 105 	342 	107
f 64 	60 	26
f 1 	26 	60
f 105 	107 	389
f 469 	106 	108
f 26 	25 	65
f 26 	65 	64
f 108 	87 	110
f 107 	344 	109
f 25 	23 	66
f 25 	66 	65
f 108 	110 	469
f 34 	179 	56
f 23 	22 	67
f 23 	67 	66
f 56 	179 	55
f 109 	344 	111
f 22 	21 	68
f 22 	68 	67
f 21 	20 	69
f 21 	69 	68
f 20 	19 	71
f 20 	71 	69
f 344 	345 	111
f 19 	18 	72
f 19 	72 	71
f 101 	494 	100
f 110 	88 	113
f 80 	81 	95
f 54 	55 	179
f 46 	179 	44
f 111 	112 	393
f 18 	17 	73
f 18 	73 	72
f 17 	16 	74
f 17 	74 	73
f 113 	88 	114
f 99 	492 	98
f 16 	10 	75
f 16 	75 	74
f 113 	114 	471
f 114 	91 	115
f 10 	9 	76
f 10 	76 	75
f 116 	218 	118
f 9 	78 	76
f 91 	92 	115
f 474 	115 	119
f 218 	120 	118
f 9 	48 	78
f 119 	115 	92
f 48 	47 	79
f 48 	79 	78
f 119 	121 	474
f 79 	47 	46
f 79 	46 	80
f 121 	119 	96
f 46 	44 	81
f 46 	81 	80
f 44 	43 	82
f 44 	82 	81
f 43 	42 	84
f 43 	84 	82
f 42 	41 	86
f 42 	86 	84
f 41 	40 	87
f 41 	87 	86
f 40 	39 	88
f 40 	88 	87
f 39 	38 	89
f 39 	89 	88
f 38 	36 	91
f 38 	91 	89
f 185 	186 	179
f 36 	34 	92
f 36 	92 	91
f 34 	96 	92
f 34 	56 	96
f 56 	55 	97
f 56 	97 	96
f 55 	54 	98
f 55 	98 	97
f 54 	53 	99
f 54 	99 	98
f 53 	52 	100
f 53 	100 	99
f 52 	51 	101
f 52 	101 	100
f 50 	102 	101
f 50 	101 	51
f 184 	185 	179
f 50 	234 	102
f 461 	7 	485
f 168 	169 	138
f 160 	168 	138
f 139 	160 	138
f 144 	94 	143
f 143 	24 	142
f 145 	256 	146
f 256 	151 	146
f 148 	149 	160
f 149 	150 	160
f 150 	152 	160
f 152 	153 	160
f 153 	154 	160
f 158 	160 	154
f 155 	157 	154
f 156 	157 	155
f 158 	154 	157
f 147 	148 	160
f 173 	174 	138
f 172 	173 	138
f 179 	136 	178
f 170 	172 	138
f 174 	175 	138
f 175 	176 	138
f 176 	177 	138
f 137 	138 	177
f 178 	136 	177
f 169 	170 	138
f 181 	477 	250
f 182 	13 	183
f 186 	50 	179
f 50 	51 	179
f 187 	181 	226
f 188 	183 	14
f 13 	14 	183
f 189 	188 	28
f 14 	28 	188
f 225 	226 	181
f 28 	45 	197
f 28 	197 	189
f 193 	449 	192
f 192 	447 	191
f 194 	449 	193
f 195 	27 	194
f 45 	198 	197
f 479 	187 	196
f 196 	187 	226
f 196 	199 	479
f 205 	206 	453
f 454 	453 	206
f 453 	452 	205
f 204 	205 	452
f 207 	454 	206
f 208 	455 	207
f 209 	457 	208
f 210 	457 	209
f 211 	443 	210
f 191 	446 	190
f 212 	444 	211
f 190 	446 	212
f 214 	199 	228
f 216 	15 	213
f 116 	117 	213
f 216 	213 	117
f 213 	31 	218
f 213 	218 	116
f 482 	214 	217
f 218 	33 	221
f 215 	233 	201
f 219 	233 	220
f 217 	231 	220
f 226 	227 	196
f 199 	196 	227
f 227 	228 	199
f 228 	229 	214
f 214 	229 	217
f 229 	230 	217
f 231 	217 	230
f 219 	220 	231
f 120 	218 	221
f 482 	217 	483
f 220 	483 	217
f 221 	354 	232
f 219 	201 	233
f 221 	232 	122
f 221 	122 	120
f 222 	244 	236
f 236 	244 	235
f 220 	233 	483
f 232 	355 	237
f 139 	138 	191
f 139 	191 	190
f 123 	122 	237
f 232 	237 	122
f 138 	137 	192
f 138 	192 	191
f 237 	356 	238
f 136 	193 	192
f 136 	192 	137
f 421 	233 	215
f 135 	194 	193
f 135 	193 	136
f 237 	238 	125
f 237 	125 	123
f 134 	195 	194
f 134 	194 	135
f 238 	357 	239
f 225 	181 	224
f 224 	250 	223
f 223 	248 	222
f 235 	243 	234
f 134 	284 	195
f 126 	125 	239
f 238 	239 	125
f 239 	357 	241
f 485 	7 	240
f 158 	202 	201
f 158 	201 	160
f 239 	241 	127
f 239 	127 	126
f 240 	234 	242
f 157 	203 	202
f 157 	202 	158
f 485 	240 	486
f 242 	486 	240
f 156 	204 	203
f 156 	203 	157
f 128 	127 	241
f 242 	234 	243
f 155 	205 	204
f 155 	204 	156
f 243 	486 	242
f 154 	206 	205
f 154 	205 	155
f 243 	235 	244
f 153 	207 	206
f 153 	206 	154
f 152 	208 	207
f 152 	207 	153
f 241 	359 	245
f 150 	209 	208
f 150 	208 	152
f 244 	222 	246
f 149 	210 	209
f 149 	209 	150
f 241 	245 	128
f 246 	489 	244
f 245 	360 	247
f 148 	211 	210
f 148 	210 	149
f 246 	222 	248
f 147 	212 	211
f 147 	211 	148
f 129 	128 	247
f 245 	247 	128
f 246 	248 	489
f 490 	489 	248
f 247 	361 	249
f 248 	223 	250
f 250 	224 	181
f 190 	212 	147
f 190 	147 	139
f 247 	249 	130
f 247 	130 	129
f 490 	248 	491
f 250 	491 	248
f 249 	361 	251
f 178 	223 	222
f 178 	222 	179
f 131 	130 	251
f 249 	251 	130
f 177 	224 	223
f 177 	223 	178
f 251 	363 	252
f 176 	225 	224
f 176 	224 	177
f 234 	240 	102
f 251 	252 	132
f 251 	132 	131
f 175 	226 	225
f 175 	225 	176
f 363 	364 	252
f 174 	227 	226
f 174 	226 	175
f 133 	132 	253
f 252 	253 	132
f 173 	228 	227
f 173 	227 	174
f 253 	364 	254
f 172 	229 	228
f 172 	228 	173
f 253 	254 	140
f 253 	140 	133
f 170 	230 	229
f 170 	229 	172
f 57 	58 	254
f 169 	231 	230
f 169 	230 	170
f 145 	140 	255
f 254 	255 	140
f 168 	219 	231
f 168 	231 	169
f 255 	254 	58
f 326 	179 	325
f 160 	201 	219
f 160 	219 	168
f 255 	256 	145
f 255 	58 	256
f 186 	234 	50
f 162 	495 	161
f 163 	496 	162
f 165 	497 	163
f 166 	498 	165
f 258 	500 	166
f 259 	500 	258
f 260 	501 	259
f 261 	502 	260
f 262 	504 	261
f 141 	6 	263
f 142 	24 	141
f 263 	504 	262
f 159 	161 	495
f 185 	235 	234
f 185 	234 	186
f 151 	256 	257
f 184 	236 	235
f 184 	235 	185
f 59 	60 	256
f 184 	179 	236
f 222 	236 	179
f 257 	264 	164
f 257 	164 	151
f 257 	256 	60
f 297 	179 	296
f 269 	270 	179
f 270 	283 	179
f 167 	164 	264
f 271 	434 	265
f 432 	280 	433
f 276 	277 	430
f 439 	272 	440
f 272 	439 	288
f 285 	287 	437
f 273 	440 	272
f 274 	441 	273
f 430 	429 	276
f 431 	430 	277
f 277 	278 	431
f 431 	278 	432
f 278 	279 	432
f 280 	432 	279
f 281 	433 	280
f 265 	434 	281
f 438 	437 	288
f 287 	288 	437
f 264 	257 	60
f 57 	254 	364
f 253 	252 	364
f 289 	179 	286
f 290 	179 	289
f 291 	179 	290
f 292 	179 	291
f 293 	179 	292
f 294 	179 	293
f 295 	179 	294
f 283 	286 	179
f 298 	179 	297
f 269 	142 	141
f 269 	141 	270
f 264 	282 	167
f 268 	143 	142
f 268 	142 	269
f 268 	267 	144
f 268 	144 	143
f 60 	64 	264
f 306 	299 	66
f 171 	167 	299
f 282 	299 	167
f 298 	159 	300
f 282 	264 	64
f 28 	72 	45
f 297 	161 	159
f 297 	159 	298
f 299 	306 	180
f 299 	180 	171
f 296 	162 	161
f 296 	161 	297
f 64 	65 	282
f 305 	179 	304
f 307 	179 	305
f 303 	304 	179
f 309 	179 	308
f 310 	179 	309
f 295 	163 	162
f 295 	162 	296
f 182 	180 	12
f 306 	12 	180
f 294 	165 	163
f 294 	163 	295
f 65 	66 	282
f 45 	73 	49
f 315 	179 	314
f 293 	166 	165
f 293 	165 	294
f 292 	258 	166
f 292 	166 	293
f 291 	259 	258
f 291 	258 	292
f 290 	260 	259
f 290 	259 	291
f 289 	261 	260
f 289 	260 	290
f 286 	262 	261
f 286 	261 	289
f 283 	263 	262
f 283 	262 	286
f 283 	270 	263
f 141 	263 	270
f 322 	179 	321
f 323 	179 	322
f 320 	321 	179
f 5 	320 	179
f 324 	179 	323
f 312 	272 	288
f 312 	311 	273
f 312 	273 	272
f 311 	310 	274
f 311 	274 	273
f 310 	309 	275
f 310 	275 	274
f 179 	335 	336
f 336 	337 	179
f 337 	35 	179
f 32 	179 	35
f 30 	179 	32
f 11 	179 	30
f 334 	179 	333
f 309 	308 	276
f 309 	276 	275
f 308 	307 	277
f 308 	277 	276
f 307 	305 	278
f 307 	278 	277
f 305 	304 	279
f 305 	279 	278
f 296 	179 	295
f 304 	303 	280
f 304 	280 	279
f 303 	302 	281
f 303 	281 	280
f 302 	301 	265
f 302 	265 	281
f 300 	266 	265
f 300 	265 	301
f 159 	266 	300
f 316 	284 	134
f 315 	285 	284
f 315 	284 	316
f 314 	287 	285
f 314 	285 	315
f 313 	288 	287
f 313 	287 	314
f 267 	268 	179
f 288 	313 	312
f 342 	105 	341
f 341 	94 	144
f 326 	327 	179
f 318 	179 	317
f 216 	512 	15
f 15 	512 	29
f 348 	349 	507
f 509 	508 	350
f 505 	112 	346
f 508 	507 	349
f 349 	350 	508
f 350 	351 	509
f 509 	351 	510
f 351 	352 	510
f 353 	510 	352
f 29 	511 	353
f 327 	328 	179
f 324 	325 	179
f 354 	221 	37
f 355 	232 	354
f 37 	221 	33
f 33 	218 	31
f 356 	237 	355
f 357 	238 	356
f 358 	241 	357
f 359 	241 	358
f 360 	245 	359
f 361 	247 	360
f 362 	251 	361
f 31 	213 	15
f 59 	256 	58
f 363 	251 	362
f 319 	341 	267
f 144 	267 	341
f 329 	179 	328
f 329 	317 	179
f 318 	319 	179
f 267 	179 	319
f 268 	269 	179
f 300 	179 	298
f 319 	318 	342
f 319 	342 	341
f 318 	317 	343
f 318 	343 	342
f 333 	179 	332
f 317 	329 	343
f 329 	344 	343
f 329 	328 	345
f 329 	345 	344
f 328 	327 	346
f 328 	346 	345
f 327 	326 	347
f 327 	347 	346
f 326 	325 	348
f 326 	348 	347
f 325 	324 	349
f 325 	349 	348
f 324 	323 	350
f 324 	350 	349
f 323 	322 	351
f 323 	351 	350
f 322 	321 	352
f 322 	352 	351
f 5 	179 	11
f 321 	320 	353
f 321 	353 	352
f 320 	5 	29
f 320 	29 	353
f 331 	179 	330
f 332 	179 	331
f 46 	47 	179
f 330 	179 	340
f 339 	340 	179
f 338 	339 	179
f 4 	338 	179
f 2 	3 	179
f 25 	26 	179
f 335 	179 	334
f 9 	10 	179
f 23 	25 	179
f 47 	48 	179
f 35 	337 	354
f 35 	354 	37
f 337 	336 	355
f 337 	355 	354
f 336 	335 	356
f 336 	356 	355
f 335 	334 	357
f 335 	357 	356
f 334 	333 	358
f 334 	358 	357
f 333 	332 	359
f 333 	359 	358
f 332 	331 	360
f 332 	360 	359
f 331 	330 	361
f 331 	361 	360
f 362 	361 	330
f 302 	303 	179
f 300 	301 	179
f 302 	179 	301
f 330 	340 	362
f 340 	339 	363
f 340 	363 	362
f 314 	179 	313
f 313 	179 	312
f 339 	338 	364
f 339 	364 	363
f 338 	4 	57
f 338 	57 	364
f 311 	179 	310
f 368 	198 	367
f 366 	367 	198
f 369 	198 	368
f 370 	198 	369
f 371 	198 	370
f 372 	198 	371
f 373 	198 	372
f 365 	366 	198
f 312 	179 	311
f 377 	378 	116
f 117 	116 	378
f 378 	379 	117
f 375 	117 	379
f 380 	381 	379
f 382 	379 	381
f 375 	379 	382
f 384 	198 	383
f 385 	198 	384
f 386 	198 	385
f 387 	198 	386
f 388 	198 	387
f 389 	198 	388
f 390 	198 	389
f 391 	198 	390
f 392 	188 	391
f 393 	188 	392
f 376 	188 	393
f 373 	383 	198
f 123 	377 	122
f 120 	122 	377
f 118 	120 	377
f 116 	118 	377
f 125 	377 	123
f 126 	377 	125
f 127 	377 	126
f 128 	129 	377
f 127 	128 	377
f 134 	179 	316
f 135 	136 	179
f 315 	316 	179
f 307 	308 	179
f 134 	135 	179
f 129 	130 	377
f 376 	377 	130
f 376 	130 	131
f 376 	131 	132
f 376 	132 	133
f 376 	133 	140
f 376 	140 	145
f 376 	145 	146
f 376 	146 	151
f 376 	151 	164
f 164 	167 	376
f 167 	171 	376
f 137 	177 	136
f 188 	376 	183
f 182 	183 	376
f 180 	182 	376
f 171 	180 	376
f 189 	391 	188
f 197 	391 	189
f 198 	391 	197
f 139 	147 	160
f 49 	74 	61
f 61 	76 	77
f 49 	61 	200
f 49 	200 	198
f 61 	77 	462
f 61 	462 	200
f 412 	70 	403
f 442 	394 	408
f 409 	62 	410
f 27 	410 	62
f 411 	410 	27
f 431 	396 	395
f 431 	397 	396
f 433 	398 	397
f 433 	399 	398
f 271 	400 	399
f 271 	435 	400
f 401 	400 	435
f 402 	401 	435
f 439 	405 	404
f 405 	439 	406
f 441 	407 	406
f 407 	441 	408
f 429 	394 	442
f 275 	276 	429
f 395 	394 	430
f 429 	430 	394
f 429 	442 	275
f 430 	431 	395
f 431 	432 	397
f 432 	433 	397
f 433 	281 	434
f 433 	434 	399
f 434 	271 	399
f 265 	266 	435
f 271 	265 	435
f 435 	266 	436
f 435 	436 	402
f 284 	285 	70
f 63 	284 	70
f 27 	284 	63
f 437 	70 	285
f 403 	70 	437
f 440 	273 	441
f 438 	288 	439
f 438 	404 	403
f 438 	403 	437
f 439 	404 	438
f 274 	275 	441
f 440 	406 	439
f 441 	406 	440
f 442 	408 	441
f 442 	441 	275
f 62 	194 	27
f 445 	415 	414
f 445 	446 	415
f 416 	415 	446
f 416 	446 	417
f 447 	417 	446
f 417 	447 	418
f 448 	418 	447
f 419 	418 	448
f 451 	422 	420
f 422 	451 	423
f 452 	423 	451
f 423 	452 	424
f 454 	425 	424
f 454 	426 	425
f 457 	443 	428
f 284 	27 	195
f 457 	210 	443
f 455 	208 	456
f 456 	208 	457
f 454 	207 	455
f 203 	204 	452
f 413 	428 	443
f 443 	211 	444
f 414 	413 	444
f 443 	444 	413
f 444 	212 	445
f 444 	445 	414
f 445 	212 	446
f 446 	191 	447
f 447 	192 	448
f 448 	192 	449
f 449 	194 	62
f 448 	449 	419
f 419 	449 	409
f 62 	409 	449
f 215 	201 	450
f 450 	420 	215
f 421 	215 	420
f 201 	202 	450
f 451 	420 	450
f 451 	450 	202
f 452 	451 	203
f 202 	203 	451
f 453 	424 	452
f 454 	424 	453
f 455 	426 	454
f 426 	455 	427
f 456 	427 	455
f 427 	456 	428
f 457 	428 	456
f 462 	83 	463
f 83 	85 	464
f 83 	464 	463
f 464 	85 	465
f 465 	95 	466
f 467 	466 	104
f 95 	104 	466
f 104 	106 	468
f 104 	468 	467
f 106 	469 	468
f 469 	110 	470
f 110 	471 	470
f 110 	113 	471
f 114 	472 	471
f 114 	115 	473
f 114 	473 	472
f 115 	474 	473
f 474 	121 	475
f 476 	475 	124
f 121 	124 	475
f 124 	458 	476
f 477 	181 	478
f 187 	478 	181
f 479 	478 	187
f 199 	480 	479
f 214 	481 	480
f 214 	480 	199
f 482 	481 	214
f 233 	484 	483
f 421 	484 	233
f 243 	487 	486
f 487 	243 	488
f 244 	488 	243
f 489 	488 	244
f 491 	250 	477
f 124 	98 	492
f 102 	240 	101
f 458 	124 	492
f 492 	99 	493
f 459 	458 	493
f 492 	493 	458
f 493 	99 	494
f 7 	101 	240
f 493 	494 	460
f 493 	460 	459
f 494 	101 	7
f 461 	460 	7
f 494 	7 	460
f 374 	365 	198
f 402 	374 	198
f 401 	402 	198
f 400 	401 	198
f 395 	198 	394
f 396 	198 	395
f 396 	397 	198
f 398 	198 	397
f 399 	198 	398
f 400 	198 	399
f 408 	198 	407
f 406 	407 	198
f 405 	406 	198
f 394 	198 	408
f 404 	405 	198
f 411 	198 	410
f 412 	198 	411
f 409 	410 	198
f 412 	403 	198
f 403 	404 	198
f 427 	428 	198
f 409 	198 	419
f 415 	198 	414
f 416 	198 	415
f 417 	198 	416
f 418 	198 	417
f 419 	198 	418
f 426 	427 	198
f 414 	198 	413
f 425 	198 	424
f 423 	424 	198
f 422 	423 	198
f 420 	422 	198
f 413 	198 	428
f 426 	198 	425
f 198 	476 	458
f 198 	458 	459
f 198 	459 	460
f 198 	460 	461
f 485 	486 	198
f 461 	485 	198
f 477 	478 	198
f 468 	469 	467
f 466 	467 	469
f 465 	466 	469
f 464 	465 	469
f 470 	471 	198
f 469 	470 	198
f 198 	200 	469
f 462 	469 	200
f 463 	469 	462
f 464 	469 	463
f 473 	198 	472
f 474 	198 	473
f 475 	198 	474
f 471 	472 	198
f 476 	198 	475
f 421 	420 	198
f 491 	477 	198
f 478 	479 	198
f 479 	480 	198
f 480 	481 	198
f 481 	482 	198
f 482 	483 	198
f 483 	484 	198
f 484 	421 	198
f 488 	198 	487
f 486 	487 	198
f 489 	198 	488
f 490 	198 	489
f 491 	198 	490
f 495 	374 	402
f 365 	374 	495
f 501 	370 	369
f 371 	370 	501
f 373 	6 	383
f 381 	511 	382
f 511 	375 	382
f 8 	384 	383
f 8 	383 	6
f 385 	384 	8
f 90 	386 	385
f 387 	386 	94
f 90 	94 	386
f 94 	103 	388
f 94 	388 	387
f 103 	389 	388
f 389 	107 	390
f 391 	390 	109
f 107 	109 	390
f 109 	111 	392
f 109 	392 	391
f 111 	393 	392
f 112 	376 	393
f 496 	163 	497
f 436 	159 	495
f 159 	436 	266
f 402 	436 	495
f 495 	162 	496
f 365 	495 	496
f 365 	496 	366
f 497 	366 	496
f 497 	165 	498
f 502 	261 	503
f 498 	367 	366
f 498 	366 	497
f 498 	166 	499
f 367 	498 	368
f 499 	368 	498
f 499 	166 	500
f 500 	369 	368
f 500 	368 	499
f 500 	259 	501
f 369 	500 	501
f 501 	260 	502
f 502 	371 	501
f 371 	502 	372
f 503 	372 	502
f 503 	261 	504
f 372 	503 	373
f 504 	373 	503
f 504 	6 	373
f 345 	346 	112
f 346 	347 	505
f 344 	107 	343
f 376 	112 	505
f 112 	111 	345
f 507 	506 	348
f 377 	376 	506
f 505 	506 	376
f 347 	348 	505
f 506 	507 	378
f 506 	378 	377
f 506 	505 	348
f 379 	378 	508
f 507 	508 	378
f 508 	509 	380
f 508 	380 	379
f 381 	380 	510
f 509 	510 	380
f 510 	353 	511
f 510 	511 	381
f 511 	512 	375
f 511 	29 	512
f 117 	375 	216
f 512 	216 	375
f 504 	263 	6
f 6 	141 	8
f 343 	107 	342
# 1020 faces

 #end of obj_0

